<?xml version="1.0" ?><svg id="Layer_1" style="enable-background:new 0 0 24 24;" version="1.1" viewBox="0 0 24 24" xml:space="preserve" xmlns="http://www.w3.org/2000/svg" xmlns:xlink="http://www.w3.org/1999/xlink"><g id="XMLID_1815_"><g id="XMLID_1811_"><circle cx="12" cy="12" id="XMLID_1810_" r="11.5" style="fill:#E4E5E6;"/><path d="M12,0.5C5.649,0.5,0.5,5.649,0.5,12S5.649,23.5,12,23.5    S23.5,18.351,23.5,12S18.351,0.5,12,0.5z M11,20c-4.971,0-9-4.029-9-9s4.029-9,9-9s9,4.029,9,9S15.971,20,11,20z" id="XMLID_1814_" style="opacity:0.1;enable-background:new    ;"/><circle cx="10.5" cy="10" id="XMLID_1809_" r="6.5" style="opacity:0.5;fill:#FFFFFF;enable-background:new    ;"/><path d="M11,10.5C8.594,9.562,7.684,5.122,5,6c-1.984,0.649-1.958,3.549-0.5,5.5    C6.112,13.656,9.406,15.125,11,10.5z" id="XMLID_1808_" style="fill:#5C6671;"/><path d="M12.996,10.5C15.402,9.562,16.316,5.122,19,6c1.984,0.649,1.954,3.549,0.496,5.5    C17.884,13.656,14.589,15.125,12.996,10.5z" id="XMLID_1483_" style="fill:#5C6671;"/><g id="XMLID_1372_"><path d="M12,0C5.383,0,0,5.383,0,12s5.383,12,12,12s12-5.383,12-12S18.617,0,12,0z      M12,23C5.935,23,1,18.065,1,12S5.935,1,12,1s11,4.935,11,11S18.065,23,12,23z" id="XMLID_1921_" style="fill:#303C42;"/><path d="M7.883,14.046c0.152,0,0.307-0.011,0.461-0.036     c0.952-0.149,2.269-0.851,3.129-3.347c0.088-0.254-0.041-0.532-0.291-0.629c-0.87-0.339-1.57-1.282-2.248-2.194     C7.912,6.462,6.747,4.905,4.845,5.525C4.013,5.797,3.403,6.431,3.124,7.309C2.694,8.669,3.077,10.432,4.1,11.8     C4.907,12.88,6.341,14.046,7.883,14.046z M4.078,7.61c0.183-0.579,0.546-0.961,1.077-1.135c0.184-0.06,0.356-0.089,0.521-0.089     c0.88,0,1.539,0.817,2.454,2.05c0.658,0.886,1.336,1.798,2.241,2.316c-0.544,1.349-1.294,2.131-2.184,2.27     C6.916,13.226,5.62,12.165,4.899,11.2C4.077,10.1,3.747,8.657,4.078,7.61z" id="XMLID_1939_" style="fill:#303C42;"/><path d="M21.306,13.976l-0.011-0.003c0.063-0.301,0.114-0.607,0.148-0.918     c0.03-0.274-0.168-0.522-0.442-0.552c-0.275-0.029-0.521,0.167-0.552,0.442c-0.029,0.261-0.07,0.519-0.122,0.772     c-0.259-0.061-0.528,0.092-0.6,0.354c-0.07,0.261,0.082,0.527,0.339,0.605c-0.13,0.393-0.285,0.773-0.468,1.137     c-0.236-0.127-0.534-0.047-0.669,0.188c-0.137,0.236-0.057,0.534,0.174,0.675c-0.226,0.344-0.479,0.667-0.751,0.973     c-0.196-0.184-0.503-0.183-0.694,0.009c-0.193,0.193-0.193,0.502-0.006,0.698c-0.307,0.272-0.637,0.517-0.98,0.743     c-0.142-0.229-0.438-0.305-0.671-0.17c-0.236,0.136-0.317,0.434-0.186,0.672c-0.365,0.183-0.747,0.333-1.139,0.463     c-0.08-0.255-0.341-0.403-0.604-0.335c-0.261,0.07-0.414,0.334-0.355,0.595c-0.398,0.081-0.805,0.131-1.22,0.155     C12.483,20.212,12.268,20,12,20s-0.483,0.212-0.495,0.477c-0.415-0.024-0.823-0.073-1.22-0.155     c0.06-0.261-0.094-0.525-0.355-0.595c-0.262-0.067-0.524,0.081-0.604,0.335c-0.392-0.13-0.774-0.28-1.139-0.463     c0.13-0.238,0.049-0.536-0.186-0.672c-0.234-0.134-0.53-0.058-0.671,0.17c-0.344-0.226-0.674-0.471-0.98-0.743     c0.188-0.196,0.187-0.506-0.006-0.698c-0.191-0.191-0.498-0.193-0.694-0.009c-0.272-0.306-0.525-0.629-0.751-0.973     c0.231-0.141,0.31-0.44,0.174-0.675c-0.135-0.235-0.433-0.316-0.669-0.188c-0.182-0.364-0.338-0.744-0.468-1.137     c0.257-0.078,0.409-0.343,0.339-0.605c-0.071-0.261-0.333-0.418-0.6-0.354c-0.052-0.253-0.093-0.51-0.122-0.772     c-0.03-0.275-0.282-0.47-0.552-0.442c-0.274,0.03-0.473,0.278-0.442,0.552c0.034,0.311,0.085,0.617,0.148,0.918l-0.011,0.003     c-0.268,0.071-0.426,0.345-0.354,0.612c0.061,0.223,0.263,0.371,0.483,0.371c0.042,0,0.086-0.005,0.129-0.017l0.015-0.004     c0.154,0.476,0.342,0.935,0.565,1.373l-0.009,0.005c-0.239,0.138-0.321,0.444-0.183,0.683c0.092,0.16,0.261,0.25,0.433,0.25     c0.085,0,0.171-0.021,0.25-0.067l0.007-0.004c0.271,0.417,0.577,0.808,0.908,1.176l-0.009,0.009     c-0.195,0.195-0.195,0.512,0,0.707c0.098,0.098,0.226,0.146,0.354,0.146s0.256-0.049,0.354-0.146l0.006-0.006     c0.368,0.331,0.767,0.629,1.183,0.899l-0.007,0.013c-0.139,0.239-0.057,0.545,0.183,0.683c0.079,0.045,0.165,0.067,0.25,0.067     c0.172,0,0.341-0.089,0.433-0.25l0.006-0.01c0.439,0.223,0.9,0.408,1.374,0.562l-0.005,0.018     c-0.071,0.267,0.087,0.541,0.354,0.612c0.044,0.012,0.087,0.017,0.13,0.017c0.221,0,0.423-0.147,0.483-0.371l0.005-0.017     c0.479,0.101,0.97,0.162,1.471,0.188v0.023c0,0.276,0.224,0.5,0.5,0.5s0.5-0.224,0.5-0.5v-0.023     c0.501-0.026,0.992-0.087,1.471-0.188l0.005,0.017c0.061,0.224,0.263,0.371,0.483,0.371c0.043,0,0.086-0.005,0.13-0.017     c0.267-0.071,0.425-0.346,0.354-0.612l-0.005-0.018c0.474-0.154,0.935-0.338,1.374-0.562l0.006,0.01     c0.092,0.161,0.261,0.25,0.433,0.25c0.085,0,0.171-0.021,0.25-0.067c0.239-0.138,0.321-0.444,0.183-0.683l-0.007-0.013     c0.417-0.271,0.815-0.568,1.183-0.899l0.006,0.006c0.098,0.098,0.226,0.146,0.354,0.146s0.256-0.049,0.354-0.146     c0.195-0.195,0.195-0.512,0-0.707l-0.009-0.009c0.331-0.367,0.637-0.758,0.908-1.176l0.007,0.004     c0.079,0.045,0.165,0.067,0.25,0.067c0.172,0,0.341-0.09,0.433-0.25c0.139-0.239,0.057-0.545-0.183-0.683l-0.009-0.005     c0.223-0.438,0.411-0.897,0.565-1.373l0.015,0.004c0.043,0.012,0.086,0.017,0.129,0.017c0.221,0,0.423-0.147,0.483-0.371     C21.731,14.321,21.573,14.047,21.306,13.976z" id="XMLID_1940_" style="fill:#303C42;"/><path d="M11.179,13.054c-0.041,0.016-0.411,0.168-0.688,0.536     c-0.267,0.354-0.338,0.765-0.346,0.811c-0.026,0.169,0.035,0.341,0.164,0.455c0.093,0.081,0.21,0.124,0.33,0.124     c0.048,0,0.096-0.007,0.143-0.021s0.468-0.148,0.758-0.534c0.281-0.375,0.316-0.825,0.319-0.875     c0.011-0.17-0.066-0.334-0.205-0.435C11.518,13.016,11.337,12.992,11.179,13.054z" id="XMLID_1941_" style="fill:#303C42;"/><path d="M15.652,14.011c0.154,0.024,0.309,0.035,0.461,0.035     c1.542,0,2.976-1.167,3.782-2.247c1.009-1.348,1.401-3.153,0.979-4.493c-0.277-0.877-0.888-1.51-1.719-1.782     c-1.903-0.624-3.067,0.937-4.093,2.315c-0.678,0.912-1.379,1.855-2.249,2.194c-0.25,0.097-0.379,0.375-0.291,0.629     C13.383,13.16,14.699,13.862,15.652,14.011z M15.865,8.437c1.089-1.465,1.815-2.344,2.979-1.962     c0.531,0.174,0.893,0.555,1.075,1.133c0.331,1.046-0.001,2.49-0.825,3.593c-0.721,0.964-2.021,2.02-3.288,1.822     c-0.89-0.139-1.64-0.921-2.184-2.27C14.528,10.235,15.206,9.323,15.865,8.437z" id="XMLID_1944_" style="fill:#303C42;"/><path d="M12.455,14.425c0.29,0.386,0.711,0.52,0.758,0.534s0.095,0.021,0.143,0.021     c0.12,0,0.237-0.043,0.33-0.124c0.129-0.113,0.19-0.285,0.164-0.455c-0.008-0.046-0.079-0.457-0.345-0.81     c-0.275-0.369-0.646-0.521-0.688-0.537c-0.159-0.063-0.34-0.039-0.476,0.062c-0.139,0.101-0.216,0.264-0.205,0.435     C12.14,13.6,12.174,14.05,12.455,14.425C12.454,14.425,12.454,14.425,12.455,14.425z" id="XMLID_1945_" style="fill:#303C42;"/></g></g><linearGradient gradientUnits="userSpaceOnUse" id="XMLID_2_" x1="1.1248" x2="22.8752" y1="6.9288" y2="17.0712"><stop offset="0" style="stop-color:#FFFFFF;stop-opacity:0.2"/><stop offset="1" style="stop-color:#FFFFFF;stop-opacity:0"/></linearGradient><path d="M12,0C5.383,0,0,5.383,0,12s5.383,12,12,12s12-5.383,12-12S18.617,0,12,0z" id="XMLID_1821_" style="fill:url(#XMLID_2_);"/></g></svg>